<svg xmlns="http://www.w3.org/2000/svg" viewBox="0 0 512 512">
  <defs>
    <linearGradient id="bg" x1="0" y1="0" x2="1" y2="1">
      <stop offset="0%" stop-color="#a855f7"/>
      <stop offset="100%" stop-color="#ec4899"/>
    </linearGradient>
  </defs>
  <!-- Full bleed background for maskable (no rounded corners — OS will mask) -->
  <rect width="512" height="512" fill="url(#bg)"/>
  <!-- Music note — kept inside the safe zone (inner 80%) -->
  <path fill="white"
    d="M310 168 L310 286
       C310 305 294 320 275 320
       C256 320 240 305 240 286
       C240 267 256 252 275 252
       C282 252 289 254 295 258
       L295 182
       L200 206
       L200 314
       C200 333 184 348 165 348
       C146 348 130 333 130 314
       C130 295 146 280 165 280
       C172 280 179 282 185 286
       L185 182
       C185 169 194 159 207 155
       Z"
  />
</svg>
